<svg xmlns="http://www.w3.org/2000/svg" xmlns:xlink="http://www.w3.org/1999/xlink" version="1.0" x="0" y="0" width="2400" height="563.944335988075" viewBox="70.72850296020508 101.67349502563476 198.5430093383789 46.65300231933594" preserveAspectRatio="xMidYMid meet" color-interpolation-filters="sRGB"><g><defs><linearGradient id="92" x1="0%" y1="0%" x2="100%" y2="0%"><stop offset="0%" stop-color="#fa71cd"></stop> <stop offset="100%" stop-color="#9b59b6"></stop></linearGradient><linearGradient id="93" x1="0%" y1="0%" x2="100%" y2="0%"><stop offset="0%" stop-color="#f9d423"></stop> <stop offset="100%" stop-color="#f83600"></stop></linearGradient><linearGradient id="94" x1="0%" y1="0%" x2="100%" y2="0%"><stop offset="0%" stop-color="#0064d2"></stop> <stop offset="100%" stop-color="#1cb0f6"></stop></linearGradient><linearGradient id="95" x1="0%" y1="0%" x2="100%" y2="0%"><stop offset="0%" stop-color="#f00978"></stop> <stop offset="100%" stop-color="#3f51b1"></stop></linearGradient><linearGradient id="96" x1="0%" y1="0%" x2="100%" y2="0%"><stop offset="0%" stop-color="#7873f5"></stop> <stop offset="100%" stop-color="#ec77ab"></stop></linearGradient><linearGradient id="97" x1="0%" y1="0%" x2="100%" y2="0%"><stop offset="0%" stop-color="#f9d423"></stop> <stop offset="100%" stop-color="#e14fad"></stop></linearGradient><linearGradient id="98" x1="0%" y1="0%" x2="100%" y2="0%"><stop offset="0%" stop-color="#009efd"></stop> <stop offset="100%" stop-color="#2af598"></stop></linearGradient><linearGradient id="99" x1="0%" y1="0%" x2="100%" y2="0%"><stop offset="0%" stop-color="#ffcc00"></stop> <stop offset="100%" stop-color="#00b140"></stop></linearGradient><linearGradient id="100" x1="0%" y1="0%" x2="100%" y2="0%"><stop offset="0%" stop-color="#d51007"></stop> <stop offset="100%" stop-color="#ff8177"></stop></linearGradient><linearGradient id="102" x1="0%" y1="0%" x2="100%" y2="0%"><stop offset="0%" stop-color="#a2b6df"></stop> <stop offset="100%" stop-color="#0c3483"></stop></linearGradient><linearGradient id="103" x1="0%" y1="0%" x2="100%" y2="0%"><stop offset="0%" stop-color="#7ac5d8"></stop> <stop offset="100%" stop-color="#eea2a2"></stop></linearGradient><linearGradient id="104" x1="0%" y1="0%" x2="100%" y2="0%"><stop offset="0%" stop-color="#00ecbc"></stop> <stop offset="100%" stop-color="#007adf"></stop></linearGradient><linearGradient id="105" x1="0%" y1="0%" x2="100%" y2="0%"><stop offset="0%" stop-color="#b88746"></stop> <stop offset="100%" stop-color="#fdf5a6"></stop></linearGradient></defs><g fill="#343c3e" class="basesvg" transform="translate(72.67499542236328,103.61999893188477)"><g fill-rule="" class="tp-name"><g transform="scale(1)"><g><path d="M4.89-31.21L11.17-35.23 19.39-37.33 27.29-36.9 36.25-30.72 38.83-25.57 40.61-18.42 39.53-11.28 35.4-4.14 27.98-0.59 20.89 0.43 11.87-1.29 5.59-5 2.15-8.75 0.48-15.47 1.24-24.76 4.89-31.21ZM28.31-25.35L22.72-28.57 16.87-28.09 12.08-25.62 9.78-22.08 9.08-17.03 10.21-12.25 14.34-8.97 21.11-7.63 28.52-9.94 30.88-14.45 31.31-19.6 28.31-25.35ZM66.71 0.11L62.09 2.74 58.54-2.74 55.38-7.2 50.65-1.4 47.86 3.01 43.34-0.48 40.39-1.83 51.03-13.27 50.7-13.64 40.61-25.62 43.72-27.39 48.13-29.76 52.21-23.26 55.75-18.69 64.88-30.19 67.84-27.07 71.38-25.03 63.38-16.97 60.16-13.05 62.09-10.58 69.56-2.26 66.71 0.11ZM91.09-39.58L95.82-36.68 97.97-32.98 91.95-30.29 87.44-31.96 84.86-29.92 84.22-25.94 93.03-26.1 92.81-19.55 84-19.55 84-11.12 85.72 1.29 79.71 0.64 75.41 0.21 75.63-1.5 76.05-10.69 75.73-19.34 71.54-19.17 71.11-24.06 70.9-25.89 75.46-25.89 75.41-26.53 77.56-33.57 83.36-38.73 91.09-39.58ZM95.98-19.77L94.8-25.83 99.42-26.26 104.09-27.5 103.98-24.6 107.69-26.26 112.95-26.91 119.4-24.98 120.74-20.68 115.53-15.9 111.18-19.82 103.82-17.83 103.61-13.7 104.31-1.29 104.52 0.16 99.63 0.54 94.75 0.54 96.2-11.49 95.98-19.77ZM136.21-18.91L132.4-18.37 128.96-14.66 129.01-9.61 132.45-6.71 138.36-8.43 141.21-10.53 140.99-17.51 136.21-18.91ZM134.12-26.43L141.37-25.57 141.53-27.61 148.67-26.05 148.35-22.72 148.89-13.21 151.46 0 144.32 0.75 142.66-2.42 137.39 0.32 127.78 0 122.19-5.42 121.44-15.84 127.4-24.17 134.12-26.43ZM153.34-28.47L152.27-39.05 156.35-39.05 161.51-39.75 160.86-22.93 160.92-21 168.6-24.6 177.84-29.49 179.77-27.39 182.13-23.63 172.04-18.48 177.84-8.16 181.7-3.06 176.98-0.75 174.4 2.36 170.53-5.37 165.32-14.45 161.08-12.73 161.29-7.09 161.94 0 157.21 0.59 152.92 1.24 153.13-11.49 153.34-28.47ZM191.91-31.15L186.11-31.37 184.17-33.73 183.75-37.6 190.19-39.75 195.13-37.17 194.92-33.3 191.91-31.15ZM185.25-20.41L184.82-26.43 189.12-26.21 193.84-27.29 193.2-14.82 194.06-1.93 194.92 0.43 189.12-0.43 184.6 0.21 185.25-8.81 185.25-20.41Z" transform="translate(-0.48000001907348633, 39.75)"></path></g> </g></g> </g><defs v-gra="od"></defs></g></svg>